<svg width="96" height="25" viewBox="0 0 96 25" fill="none" xmlns="http://www.w3.org/2000/svg">
<path d="M3.776 24C3.456 24 3.296 23.8827 3.296 23.648C3.296 23.4133 3.43467 23.2853 3.712 23.264L5.152 23.04C5.57867 22.976 5.86667 22.8693 6.016 22.72C6.16533 22.5493 6.24 22.24 6.24 21.792V2.592C6.24 2.29333 6.176 2.08 6.048 1.952C5.92 1.824 5.65333 1.76 5.248 1.76C4.45867 1.76 3.68 2.10133 2.912 2.784C2.144 3.46667 1.64267 4.56533 1.408 6.08L1.248 7.136C1.20533 7.41333 1.056 7.552 0.8 7.552C0.48 7.552 0.341333 7.37067 0.384 7.008L0.672 1.216C0.714667 0.725333 0.906667 0.48 1.248 0.48C1.39733 0.48 1.536 0.522666 1.664 0.608C1.792 0.671999 2.00533 0.746665 2.304 0.831999C2.624 0.917332 3.12533 0.959999 3.808 0.959999H10.944C11.6267 0.959999 12.1173 0.917332 12.416 0.831999C12.736 0.746665 12.96 0.671999 13.088 0.608C13.2373 0.522666 13.376 0.48 13.504 0.48C13.8453 0.48 14.0373 0.725333 14.08 1.216L14.368 7.008C14.4107 7.37067 14.272 7.552 13.952 7.552C13.696 7.552 13.5467 7.41333 13.504 7.136L13.344 6.08C13.1307 4.56533 12.64 3.46667 11.872 2.784C11.104 2.10133 10.3147 1.76 9.504 1.76C9.09867 1.76 8.832 1.824 8.704 1.952C8.576 2.08 8.512 2.29333 8.512 2.592V21.792C8.512 22.24 8.58667 22.5493 8.736 22.72C8.90667 22.8693 9.19467 22.976 9.6 23.04L11.04 23.264C11.3173 23.2853 11.456 23.4133 11.456 23.648C11.456 23.8827 11.296 24 10.976 24H3.776ZM28.574 24.32C28.4887 24.32 28.4033 24.288 28.318 24.224C28.2327 24.16 28.1687 24.0213 28.126 23.808L25.662 13.888C25.6407 13.7173 25.5767 13.6427 25.47 13.664C25.3633 13.664 25.2887 13.7387 25.246 13.888L22.494 23.808C22.43 24.0213 22.3553 24.16 22.27 24.224C22.206 24.288 22.1313 24.32 22.046 24.32C21.9607 24.32 21.8647 24.288 21.758 24.224C21.6727 24.16 21.6087 24.0213 21.566 23.808L16.51 3.52C16.3607 2.92267 16.19 2.50667 15.998 2.272C15.8273 2.03733 15.5287 1.87733 15.102 1.792L14.622 1.696C14.3233 1.632 14.174 1.49333 14.174 1.28C14.174 1.06667 14.334 0.959999 14.654 0.959999H19.806C20.1047 0.959999 20.254 1.07733 20.254 1.312C20.254 1.504 20.094 1.632 19.774 1.696L19.422 1.76C19.0593 1.824 18.8247 1.952 18.718 2.144C18.6327 2.31467 18.6433 2.63467 18.75 3.104L22.526 18.72C22.5687 18.8693 22.6327 18.944 22.718 18.944C22.8247 18.944 22.8993 18.8693 22.942 18.72L24.382 13.504C24.6167 12.6933 24.734 11.9467 24.734 11.264C24.734 10.5813 24.6273 9.824 24.414 8.992L23.07 3.52C22.9207 2.92267 22.7713 2.496 22.622 2.24C22.494 1.984 22.3127 1.83467 22.078 1.792L21.598 1.696C21.2993 1.632 21.15 1.49333 21.15 1.28C21.15 1.06667 21.31 0.959999 21.63 0.959999H26.014C26.3127 0.959999 26.462 1.07733 26.462 1.312C26.462 1.504 26.302 1.632 25.982 1.696L25.63 1.76C25.3527 1.80267 25.182 1.92 25.118 2.112C25.0753 2.304 25.1073 2.63467 25.214 3.104L26.302 7.68C26.3447 7.82933 26.4087 7.904 26.494 7.904C26.6007 7.904 26.6753 7.82933 26.718 7.68L27.87 3.776C28.1047 2.96533 28.19 2.432 28.126 2.176C28.0833 1.92 27.966 1.78133 27.774 1.76L27.422 1.696C27.102 1.632 26.942 1.504 26.942 1.312C26.942 1.07733 27.0913 0.959999 27.39 0.959999H30.43C30.7927 0.959999 30.974 1.07733 30.974 1.312C30.974 1.52533 30.7927 1.65333 30.43 1.696L30.078 1.728C29.8007 1.74933 29.566 1.92 29.374 2.24C29.2033 2.56 29.0113 3.08267 28.798 3.808L27.582 8C27.3473 8.78933 27.2193 9.536 27.198 10.24C27.198 10.9227 27.294 11.68 27.486 12.512L28.926 18.528C28.9687 18.6773 29.0327 18.752 29.118 18.752C29.2247 18.752 29.2887 18.6773 29.31 18.528L32.99 3.776C33.2887 2.53867 33.0967 1.86666 32.414 1.76L32.062 1.696C31.742 1.632 31.582 1.49333 31.582 1.28C31.582 1.06667 31.7313 0.959999 32.03 0.959999H35.614C35.9767 0.959999 36.158 1.07733 36.158 1.312C36.158 1.52533 35.9767 1.65333 35.614 1.696L35.262 1.728C34.9847 1.74933 34.7393 1.92 34.526 2.24C34.334 2.53867 34.1527 3.06133 33.982 3.808L29.022 23.808C28.9793 24.0213 28.9153 24.16 28.83 24.224C28.7447 24.288 28.6593 24.32 28.574 24.32Z" fill="#FAFAFA"/>
<path d="M36.1818 24C35.8618 24 35.7018 23.8827 35.7018 23.648C35.7018 23.456 35.8404 23.328 36.1178 23.264L36.8538 23.136C37.3018 23.0507 37.5898 22.9333 37.7178 22.784C37.8671 22.6347 37.9418 22.336 37.9418 21.888V3.072C37.9418 2.624 37.8671 2.32533 37.7178 2.176C37.5898 2.02667 37.3018 1.90933 36.8538 1.824L36.1178 1.696C35.8404 1.632 35.7018 1.504 35.7018 1.312C35.7018 1.07733 35.8618 0.959999 36.1818 0.959999H46.9338C47.4244 0.959999 47.6911 1.20533 47.7338 1.696L47.9898 7.008C48.0324 7.37067 47.8938 7.552 47.5738 7.552C47.3178 7.552 47.1684 7.41333 47.1258 7.136L46.9338 5.952C46.6991 4.50133 46.2191 3.44533 45.4938 2.784C44.7684 2.10133 43.7658 1.76 42.4858 1.76C41.6324 1.76 41.0351 1.888 40.6938 2.144C40.3738 2.37867 40.2138 2.80533 40.2138 3.424V11.136C40.2138 11.4347 40.3631 11.584 40.6618 11.584H42.2618C43.2004 11.584 43.7764 11.0827 43.9898 10.08L44.3098 8.48C44.3951 8.16 44.5764 8.02133 44.8538 8.064C45.0884 8.10667 45.2058 8.288 45.2058 8.608V15.808C45.2058 16.128 45.0884 16.3093 44.8538 16.352C44.5764 16.3947 44.3951 16.256 44.3098 15.936L43.9898 14.368C43.8404 13.6213 43.6271 13.1307 43.3498 12.896C43.0938 12.6613 42.7204 12.544 42.2298 12.544H40.6618C40.3631 12.544 40.2138 12.6933 40.2138 12.992V21.024C40.2138 21.792 40.4058 22.3467 40.7898 22.688C41.1951 23.0293 41.9204 23.2 42.9658 23.2C44.0324 23.2 44.9391 22.9333 45.6858 22.4C46.4538 21.8453 46.9871 20.8213 47.2858 19.328L47.6698 17.44C47.7338 17.1627 47.8938 17.024 48.1498 17.024C48.4484 17.024 48.5764 17.2053 48.5338 17.568L48.2138 23.264C48.1711 23.7547 47.9044 24 47.4138 24H36.1818ZM50.6818 24C50.3618 24 50.2018 23.8827 50.2018 23.648C50.2018 23.456 50.3404 23.328 50.6178 23.264L51.3538 23.136C51.8018 23.0507 52.0898 22.9333 52.2178 22.784C52.3671 22.6347 52.4418 22.336 52.4418 21.888V3.072C52.4418 2.624 52.3671 2.32533 52.2178 2.176C52.0898 2.02667 51.8018 1.90933 51.3538 1.824L50.6178 1.696C50.3404 1.632 50.2018 1.504 50.2018 1.312C50.2018 1.07733 50.3618 0.959999 50.6818 0.959999H57.1778C58.2444 0.959999 59.1938 1.184 60.0258 1.632C60.8578 2.08 61.5084 2.688 61.9778 3.456C62.4684 4.224 62.7138 5.09867 62.7138 6.08C62.7138 7.04 62.4258 7.936 61.8498 8.768C61.2951 9.57867 60.4844 10.2613 59.4178 10.816C59.2898 10.88 59.2258 10.9653 59.2258 11.072C59.2258 11.1787 59.3004 11.2533 59.4498 11.296C60.9004 11.7867 62.0204 12.576 62.8098 13.664C63.5991 14.7307 63.9938 16 63.9938 17.472C63.9938 18.7307 63.7058 19.8613 63.1298 20.864C62.5538 21.8453 61.7538 22.6133 60.7298 23.168C59.7271 23.7227 58.5858 24 57.3058 24H50.6818ZM56.4098 10.848C57.5404 10.848 58.4791 10.4107 59.2258 9.536C59.9938 8.64 60.3778 7.53067 60.3778 6.208C60.3778 4.88533 60.0151 3.81867 59.2898 3.008C58.5644 2.176 57.6044 1.76 56.4098 1.76C55.2791 1.76 54.7138 2.18667 54.7138 3.04V9.088C54.7138 9.70667 54.8418 10.1547 55.0978 10.432C55.3751 10.7093 55.8124 10.848 56.4098 10.848ZM56.8898 23.2C58.2764 23.2 59.4071 22.6773 60.2818 21.632C61.1564 20.5653 61.5938 19.1467 61.5938 17.376C61.5938 15.6053 61.1458 14.208 60.2498 13.184C59.3751 12.16 58.1911 11.648 56.6978 11.648C55.3751 11.648 54.7138 12.1707 54.7138 13.216V20.992C54.7138 22.464 55.4391 23.2 56.8898 23.2ZM65.713 24C65.393 24 65.233 23.8827 65.233 23.648C65.233 23.456 65.3717 23.328 65.649 23.264L66.385 23.136C66.833 23.0507 67.121 22.9333 67.249 22.784C67.3983 22.6347 67.473 22.336 67.473 21.888V3.072C67.473 2.624 67.3983 2.32533 67.249 2.176C67.121 2.02667 66.833 1.90933 66.385 1.824L65.649 1.696C65.3717 1.632 65.233 1.504 65.233 1.312C65.233 1.07733 65.393 0.959999 65.713 0.959999H76.465C76.9557 0.959999 77.2223 1.20533 77.265 1.696L77.521 7.008C77.5637 7.37067 77.425 7.552 77.105 7.552C76.849 7.552 76.6997 7.41333 76.657 7.136L76.465 5.952C76.2303 4.50133 75.7503 3.44533 75.025 2.784C74.2997 2.10133 73.297 1.76 72.017 1.76C71.1637 1.76 70.5663 1.888 70.225 2.144C69.905 2.37867 69.745 2.80533 69.745 3.424V11.136C69.745 11.4347 69.8943 11.584 70.193 11.584H71.793C72.7317 11.584 73.3077 11.0827 73.521 10.08L73.841 8.48C73.9263 8.16 74.1077 8.02133 74.385 8.064C74.6197 8.10667 74.737 8.288 74.737 8.608V15.808C74.737 16.128 74.6197 16.3093 74.385 16.352C74.1077 16.3947 73.9263 16.256 73.841 15.936L73.521 14.368C73.3717 13.6213 73.1583 13.1307 72.881 12.896C72.625 12.6613 72.2517 12.544 71.761 12.544H70.193C69.8943 12.544 69.745 12.6933 69.745 12.992V21.024C69.745 21.792 69.937 22.3467 70.321 22.688C70.7263 23.0293 71.4517 23.2 72.497 23.2C73.5637 23.2 74.4703 22.9333 75.217 22.4C75.985 21.8453 76.5183 20.8213 76.817 19.328L77.201 17.44C77.265 17.1627 77.425 17.024 77.681 17.024C77.9797 17.024 78.1077 17.2053 78.065 17.568L77.745 23.264C77.7023 23.7547 77.4357 24 76.945 24H65.713ZM93.525 24.288C91.669 24.288 90.485 23.072 89.973 20.64L89.237 17.088C89.0023 15.936 88.7357 15.0613 88.437 14.464C88.1597 13.8667 87.765 13.4613 87.253 13.248C86.7623 13.0347 86.0797 12.928 85.205 12.928C84.9063 12.928 84.6717 13.0133 84.501 13.184C84.3303 13.3333 84.245 13.5253 84.245 13.76V21.76C84.245 22.208 84.3303 22.5173 84.501 22.688C84.6717 22.8373 85.0557 22.9653 85.653 23.072L86.837 23.264C87.0717 23.3067 87.189 23.424 87.189 23.616C87.189 23.872 87.029 24 86.709 24H80.213C79.893 24 79.733 23.8827 79.733 23.648C79.733 23.456 79.8717 23.328 80.149 23.264L80.885 23.136C81.333 23.0507 81.621 22.9333 81.749 22.784C81.8983 22.6347 81.973 22.336 81.973 21.888V3.072C81.973 2.624 81.8983 2.32533 81.749 2.176C81.621 2.02667 81.333 1.90933 80.885 1.824L80.149 1.696C79.8717 1.632 79.733 1.504 79.733 1.312C79.733 1.07733 79.893 0.959999 80.213 0.959999H86.709C87.9677 0.959999 89.0877 1.20533 90.069 1.696C91.0503 2.18667 91.8183 2.86933 92.373 3.744C92.9277 4.59733 93.205 5.58933 93.205 6.72C93.205 8.064 92.7997 9.28 91.989 10.368C91.1783 11.4347 90.1543 12.192 88.917 12.64C88.7677 12.6827 88.6823 12.7573 88.661 12.864C88.661 12.9493 88.7357 13.024 88.885 13.088C89.5677 13.408 90.101 13.856 90.485 14.432C90.8903 15.008 91.1997 15.776 91.413 16.736L92.117 20C92.3517 21.1093 92.629 21.8987 92.949 22.368C93.269 22.8373 93.6743 23.072 94.165 23.072C94.3357 23.072 94.485 23.0507 94.613 23.008C94.7623 22.944 94.9437 22.8373 95.157 22.688C95.3277 22.5813 95.4877 22.56 95.637 22.624C95.7863 22.6667 95.861 22.7733 95.861 22.944C95.861 23.3067 95.6263 23.6267 95.157 23.904C94.6877 24.16 94.1437 24.288 93.525 24.288ZM86.389 12.128C87.8397 12.128 88.9383 11.648 89.685 10.688C90.4317 9.70667 90.805 8.40533 90.805 6.784C90.805 5.20533 90.3677 3.97867 89.493 3.104C88.6397 2.208 87.4557 1.76 85.941 1.76C84.8103 1.76 84.245 2.18667 84.245 3.04V10.368C84.245 11.5413 84.9597 12.128 86.389 12.128Z" fill="#FAFAFA" fill-opacity="0.6"/>
</svg>
